<?xml version="1.0" standalone="no"?>
<!DOCTYPE svg PUBLIC "-//W3C//DTD SVG 20010904//EN"
 "http://www.w3.org/TR/2001/REC-SVG-20010904/DTD/svg10.dtd">
<svg version="1.0" xmlns="http://www.w3.org/2000/svg"
 width="128.000000pt" height="128.000000pt" viewBox="0 0 128.000000 128.000000"
 preserveAspectRatio="xMidYMid meet">

<g transform="translate(0.000000,128.000000) scale(0.100000,-0.100000)"
fill="#000000" stroke="none">
<path d="M0 640 l0 -640 315 0 315 0 0 185 0 185 38 0 c55 0 156 26 213 56 28
14 53 23 56 20 7 -7 -77 -66 -104 -72 -28 -7 -28 -9 -1 -46 20 -28 24 -30 67
-24 61 8 144 50 176 88 25 30 26 35 20 107 -10 103 -49 252 -88 331 -30 60
-37 67 -97 97 -65 33 -150 53 -150 37 0 -5 26 -19 58 -32 31 -12 68 -30 80
-40 19 -15 7 -13 -65 9 -48 16 -114 31 -145 34 l-58 6 0 170 0 169 -315 0
-315 0 0 -640z m510 327 c0 -2 -30 -16 -67 -31 -38 -14 -79 -35 -93 -46 -22
-17 -18 -17 41 5 53 19 185 45 230 45 5 0 9 -116 9 -285 l0 -285 -32 0 c-48 0
-145 25 -203 51 -28 13 -54 25 -60 28 -34 14 37 -43 76 -63 l49 -24 -27 -32
c-25 -30 -30 -32 -71 -26 -62 8 -123 38 -164 79 -33 33 -35 38 -31 88 9 121
44 264 88 365 26 58 80 98 164 120 45 12 91 18 91 11z"/>
<path d="M430 652 c-13 -10 -23 -33 -27 -58 -11 -82 76 -130 133 -73 75 75
-24 198 -106 131z"/>
</g>
</svg>
